<?xml version="1.0" standalone="no"?>
<!DOCTYPE svg PUBLIC "-//W3C//DTD SVG 20010904//EN"
 "http://www.w3.org/TR/2001/REC-SVG-20010904/DTD/svg10.dtd">
<svg version="1.0" xmlns="http://www.w3.org/2000/svg"
 width="100.000000pt" height="100.000000pt" viewBox="0 0 100.000000 100.000000"
 preserveAspectRatio="xMidYMid meet">
<metadata>
Created by potrace 1.14, written by Peter Selinger 2001-2017
</metadata>
<g transform="translate(0.000000,100.000000) scale(0.100000,-0.100000)"
fill="#000000" stroke="none">
<path d="M297 915 c-88 -35 -143 -88 -185 -175 -23 -46 -27 -68 -27 -140 0
-103 27 -170 96 -239 68 -68 136 -95 239 -96 72 0 94 4 144 28 l60 28 126
-126 c69 -69 130 -125 135 -125 14 0 47 39 43 50 -2 5 -58 65 -126 133 l-123
125 30 47 c106 167 34 399 -148 483 -80 37 -186 39 -264 7z m257 -49 c105 -51
160 -143 160 -266 1 -91 -22 -148 -84 -210 -62 -62 -119 -85 -210 -84 -168 1
-291 119 -296 284 -4 137 78 253 208 296 63 20 157 12 222 -20z"/>
<path d="M431 723 c-5 -21 -22 -85 -36 -143 -14 -58 -28 -113 -31 -122 -4 -13
0 -18 15 -18 22 0 19 -8 66 180 37 146 37 140 15 140 -14 0 -22 -11 -29 -37z"/>
<path d="M251 659 c-17 -28 -31 -54 -31 -59 0 -5 14 -31 31 -59 20 -32 36 -48
45 -44 19 7 18 18 -8 63 l-23 38 23 40 c26 46 27 58 8 65 -9 4 -25 -12 -45
-44z"/>
<path d="M537 699 c-16 -9 -15 -13 8 -47 30 -44 31 -58 5 -97 -23 -35 -25 -51
-6 -58 9 -4 25 12 45 44 17 28 31 54 31 59 0 7 -61 111 -64 110 -1 0 -9 -5
-19 -11z"/>
</g>
</svg>
